<?xml version="1.0"?>
<svg xmlns="http://www.w3.org/2000/svg" xmlns:xlink="http://www.w3.org/1999/xlink" version="1.1" id="Layer_1" x="0px" y="0px" width="100%" viewBox="0 0 1587 2245" enable-background="new 0 0 1587 2245" xml:space="preserve" style="background-color:transparent;">
<path fill="#000000" opacity="1.000000" stroke="none" d=" M1404.000000,2246.000000   C936.000000,2246.000000 468.500000,2246.000000 1.000000,2246.000000   C1.000000,1497.666626 1.000000,749.333313 1.000000,1.000000   C530.000000,1.000000 1059.000000,1.000000 1588.000000,1.000000   C1588.000000,749.333313 1588.000000,1497.666626 1588.000000,2246.000000   C1526.833374,2246.000000 1465.666626,2246.000000 1404.000000,2246.000000  M1043.768311,1084.060059   C1041.671509,1088.670166 1039.574707,1093.280273 1037.159790,1098.589844   C1025.614380,1084.027832 1014.522766,1070.038208 1003.410278,1056.022217   C1015.462402,1042.981079 1027.090820,1030.398438 1039.361938,1017.120422   C1032.192993,1017.120422 1026.348022,1016.897400 1020.536499,1017.241150   C1018.495117,1017.361816 1016.046265,1018.388367 1014.619873,1019.829224   C1006.415649,1028.117554 998.466064,1036.657593 990.422607,1045.105225   C986.817993,1048.890869 983.195679,1052.659790 978.625183,1057.435425   C978.625183,1043.211670 978.625183,1030.342407 978.625183,1017.427612   C971.633240,1017.427612 965.241638,1017.427612 958.656921,1017.427612   C958.656921,1046.338745 958.656921,1074.942749 958.656921,1103.778687   C965.279541,1103.778687 971.697754,1103.778687 978.625732,1103.778687   C978.898804,1091.480103 975.373535,1077.718262 990.813782,1070.948242   C998.883118,1080.794922 1007.255920,1091.100952 1015.771851,1101.287354   C1016.806702,1102.525269 1018.599426,1103.866211 1020.063599,1103.892334   C1031.880249,1104.103149 1043.702515,1104.010498 1055.510986,1104.010498   C1057.725708,1098.697754 1059.649536,1093.553467 1062.058228,1088.647217   C1062.729614,1087.279663 1064.817383,1085.791138 1066.284912,1085.760376   C1077.612671,1085.522217 1088.949951,1085.524048 1100.277954,1085.756592   C1101.761353,1085.786987 1103.859619,1087.216675 1104.552002,1088.571411   C1106.661499,1092.698364 1108.113525,1097.156250 1110.071045,1101.369385   C1110.580933,1102.466797 1111.974854,1103.853638 1113.008301,1103.892700   C1119.243652,1104.127563 1125.492188,1104.009521 1132.218506,1104.009521   C1131.508423,1102.353149 1131.074585,1101.302246 1130.611084,1100.264771   C1120.316162,1077.221313 1110.026978,1054.175415 1099.712891,1031.140625   C1097.678467,1026.597046 1096.680054,1020.285034 1093.147339,1018.072571   C1089.391602,1015.720398 1083.164917,1017.533630 1078.065674,1017.033447   C1074.347656,1016.668701 1072.912720,1018.382080 1071.564819,1021.448608   C1062.478027,1042.121094 1053.224854,1062.720459 1043.768311,1084.060059  M488.268097,1083.021851   C491.940430,1078.791382 495.612793,1074.561035 499.591095,1069.978149   C501.023071,1071.625366 502.118896,1072.824219 503.147003,1074.078369   C510.644409,1083.223877 518.089233,1092.413208 525.665710,1101.492676   C526.606934,1102.620605 528.213379,1103.880493 529.529724,1103.900879   C541.514954,1104.085938 553.504211,1104.009521 565.504578,1104.009521   C567.713318,1098.719482 569.640198,1093.580078 572.047424,1088.676758   C572.721313,1087.304077 574.792969,1085.792847 576.253418,1085.761841   C587.581543,1085.521973 598.920044,1085.502686 610.246643,1085.776123   C611.806152,1085.813721 613.984558,1087.505005 614.728882,1089.001465   C617.151611,1093.871948 619.041992,1099.007446 621.022949,1103.766357   C628.231934,1103.766357 634.978455,1103.766357 642.141602,1103.766357   C641.451599,1102.222046 640.920959,1101.035156 640.391052,1099.848022   C630.170837,1076.951416 619.974915,1054.043945 609.710693,1031.167236   C607.619263,1026.505737 606.398193,1020.165649 602.727722,1017.860107   C598.995789,1015.515930 592.720947,1017.390198 587.583801,1017.050781   C584.372192,1016.838562 583.029541,1018.116760 581.779968,1020.975708   C572.934937,1041.212769 563.875000,1061.355713 554.870850,1081.523071   C552.401978,1087.052856 549.889771,1092.563232 547.073181,1098.800537   C535.450745,1084.140015 524.347961,1070.134888 513.144958,1056.003418   C525.122070,1043.071655 536.758789,1030.507446 549.157593,1017.120422   C541.862000,1017.120422 536.033997,1016.897095 530.239624,1017.241272   C528.203491,1017.362122 525.749939,1018.386292 524.338623,1019.830383   C513.856384,1030.555420 503.565125,1041.467896 493.282288,1052.386108   C491.959137,1053.791138 491.028046,1055.565430 489.915283,1057.168579   C489.390289,1056.813232 488.865265,1056.457886 488.340240,1056.102661   C488.340240,1043.220947 488.340240,1030.339355 488.340240,1017.395569   C481.414948,1017.395569 475.002502,1017.395569 468.490723,1017.395569   C468.490723,1046.387207 468.490723,1075.102661 468.490723,1103.698608   C475.228851,1103.698608 481.627747,1103.698608 488.247467,1103.698608   C488.247467,1096.899048 488.247467,1090.410034 488.268097,1083.021851  M720.871887,1030.680420   C716.339355,1024.480225 710.186401,1020.264099 702.764771,1019.231995   C693.096375,1017.887451 683.265259,1017.582275 673.489685,1017.180786   C666.074707,1016.876221 658.637146,1017.120422 651.371338,1017.120422   C651.371338,1046.498901 651.371338,1075.217285 651.371338,1103.699219   C658.140137,1103.699219 664.541382,1103.699219 671.312012,1103.699219   C671.312012,1095.645630 671.312012,1087.900879 671.312012,1079.880005   C676.840942,1079.880005 682.004272,1079.689697 687.137268,1080.000000   C688.608032,1080.088989 690.429993,1081.305298 691.340576,1082.552490   C695.851440,1088.730713 700.064575,1095.125488 704.503052,1101.358154   C705.280457,1102.449707 706.605774,1103.843750 707.723694,1103.885864   C714.137268,1104.127441 720.564758,1104.003418 727.942627,1104.003418   C724.334045,1098.793823 721.252502,1094.347290 718.173157,1089.899170   C715.067200,1085.412598 711.963440,1080.924316 708.858643,1076.436768   C727.052551,1064.158081 731.345886,1048.275757 720.871887,1030.680420  M890.375610,1104.010742   C892.528503,1104.010742 894.681396,1104.010742 896.930420,1104.010742   C896.930420,1074.945312 896.930420,1046.164917 896.930420,1017.357483   C890.290588,1017.357483 883.856201,1017.357483 876.899292,1017.357483   C876.899292,1028.809082 876.899292,1040.035645 876.899292,1051.083984   C863.615356,1051.083984 850.860107,1051.083984 837.668274,1051.083984   C837.668274,1039.721191 837.668274,1028.637207 837.668274,1017.343811   C830.812561,1017.343811 824.399353,1017.343811 817.718018,1017.343811   C817.718018,1046.272339 817.718018,1075.006714 817.718018,1103.797485   C824.426453,1103.797485 830.865906,1103.797485 837.824219,1103.797485   C837.824219,1092.034302 837.824219,1080.474487 837.824219,1068.822876   C851.095825,1068.822876 863.845764,1068.822876 877.055054,1068.822876   C877.055054,1080.578735 877.055054,1092.150146 877.055054,1104.010742   C881.479248,1104.010742 885.446594,1104.010742 890.375610,1104.010742  M806.955383,1020.720215   C807.587830,1017.307434 805.661743,1017.062866 802.924194,1017.072937   C780.121826,1017.156860 757.318970,1017.114380 734.516296,1017.140381   C733.426636,1017.141602 732.337219,1017.427002 731.405273,1017.557922   C731.405273,1023.009705 731.405273,1028.100586 731.405273,1033.732178   C740.708191,1033.732178 749.740784,1033.732178 759.206909,1033.732178   C759.206909,1057.484497 759.206909,1080.687622 759.206909,1103.753418   C766.076721,1103.753418 772.490112,1103.753418 779.148926,1103.753418   C779.148926,1080.389160 779.148926,1057.281006 779.148926,1033.621460   C788.464783,1033.621460 797.546021,1033.621460 806.955444,1033.621460   C806.955444,1029.271362 806.955444,1025.470581 806.955383,1020.720215  M917.806152,1028.551025   C917.806152,1053.631348 917.806152,1078.711670 917.806152,1103.763916   C924.755005,1103.763916 931.183472,1103.763916 937.639404,1103.763916   C937.639404,1074.820068 937.639404,1046.124146 937.639404,1017.378784   C930.922302,1017.378784 924.521057,1017.378784 917.806213,1017.378784   C917.806213,1020.945435 917.806213,1024.259766 917.806152,1028.551025  z"/>
<path fill="#F9F9F9" opacity="1.000000" stroke="none" d=" M1043.896973,1083.701660   C1053.224854,1062.720459 1062.478027,1042.121094 1071.564819,1021.448608   C1072.912720,1018.382080 1074.347656,1016.668701 1078.065674,1017.033447   C1083.164917,1017.533630 1089.391602,1015.720398 1093.147339,1018.072571   C1096.680054,1020.285034 1097.678467,1026.597046 1099.712891,1031.140625   C1110.026978,1054.175415 1120.316162,1077.221313 1130.611084,1100.264771   C1131.074585,1101.302246 1131.508423,1102.353149 1132.218506,1104.009521   C1125.492188,1104.009521 1119.243652,1104.127563 1113.008301,1103.892700   C1111.974854,1103.853638 1110.580933,1102.466797 1110.071045,1101.369385   C1108.113525,1097.156250 1106.661499,1092.698364 1104.552002,1088.571411   C1103.859619,1087.216675 1101.761353,1085.786987 1100.277954,1085.756592   C1088.949951,1085.524048 1077.612671,1085.522217 1066.284912,1085.760376   C1064.817383,1085.791138 1062.729614,1087.279663 1062.058228,1088.647217   C1059.649536,1093.553467 1057.725708,1098.697754 1055.510986,1104.010498   C1043.702515,1104.010498 1031.880249,1104.103149 1020.063599,1103.892334   C1018.599426,1103.866211 1016.806702,1102.525269 1015.771851,1101.287354   C1007.255920,1091.100952 998.883118,1080.794922 990.813782,1070.948242   C975.373535,1077.718262 978.898804,1091.480103 978.625732,1103.778687   C971.697754,1103.778687 965.279541,1103.778687 958.656921,1103.778687   C958.656921,1074.942749 958.656921,1046.338745 958.656921,1017.427612   C965.241638,1017.427612 971.633240,1017.427612 978.625183,1017.427612   C978.625183,1030.342407 978.625183,1043.211670 978.625183,1057.435425   C983.195679,1052.659790 986.817993,1048.890869 990.422607,1045.105225   C998.466064,1036.657593 1006.415649,1028.117554 1014.619873,1019.829224   C1016.046265,1018.388367 1018.495117,1017.361816 1020.536499,1017.241150   C1026.348022,1016.897400 1032.192993,1017.120422 1039.361938,1017.120422   C1027.090820,1030.398438 1015.462402,1042.981079 1003.410278,1056.022217   C1014.522766,1070.038208 1025.614380,1084.027832 1037.159790,1098.589844   C1039.574707,1093.280273 1041.671509,1088.670166 1043.896973,1083.701660  M1072.935547,1062.437500   C1071.936768,1064.849243 1070.937866,1067.260986 1069.849243,1069.889160   C1079.028442,1069.889160 1087.742188,1069.889160 1096.889404,1069.889160   C1092.397095,1059.025635 1088.049805,1048.512939 1083.393066,1037.251831   C1079.791626,1045.850830 1076.473267,1053.774048 1072.935547,1062.437500  z"/>
<path fill="#F9F9F9" opacity="1.000000" stroke="none" d=" M488.257782,1083.471436   C488.247467,1090.410034 488.247467,1096.899048 488.247467,1103.698608   C481.627747,1103.698608 475.228851,1103.698608 468.490723,1103.698608   C468.490723,1075.102661 468.490723,1046.387207 468.490723,1017.395569   C475.002502,1017.395569 481.414948,1017.395569 488.340240,1017.395569   C488.340240,1030.339355 488.340240,1043.220947 488.340240,1056.102661   C488.865265,1056.457886 489.390289,1056.813232 489.915283,1057.168579   C491.028046,1055.565430 491.959137,1053.791138 493.282288,1052.386108   C503.565125,1041.467896 513.856384,1030.555420 524.338623,1019.830383   C525.749939,1018.386292 528.203491,1017.362122 530.239624,1017.241272   C536.033997,1016.897095 541.862000,1017.120422 549.157593,1017.120422   C536.758789,1030.507446 525.122070,1043.071655 513.144958,1056.003418   C524.347961,1070.134888 535.450745,1084.140015 547.073181,1098.800537   C549.889771,1092.563232 552.401978,1087.052856 554.870850,1081.523071   C563.875000,1061.355713 572.934937,1041.212769 581.779968,1020.975708   C583.029541,1018.116760 584.372192,1016.838562 587.583801,1017.050781   C592.720947,1017.390198 598.995789,1015.515930 602.727722,1017.860107   C606.398193,1020.165649 607.619263,1026.505737 609.710693,1031.167236   C619.974915,1054.043945 630.170837,1076.951416 640.391052,1099.848022   C640.920959,1101.035156 641.451599,1102.222046 642.141602,1103.766357   C634.978455,1103.766357 628.231934,1103.766357 621.022949,1103.766357   C619.041992,1099.007446 617.151611,1093.871948 614.728882,1089.001465   C613.984558,1087.505005 611.806152,1085.813721 610.246643,1085.776123   C598.920044,1085.502686 587.581543,1085.521973 576.253418,1085.761841   C574.792969,1085.792847 572.721313,1087.304077 572.047424,1088.676758   C569.640198,1093.580078 567.713318,1098.719482 565.504578,1104.009521   C553.504211,1104.009521 541.514954,1104.085938 529.529724,1103.900879   C528.213379,1103.880493 526.606934,1102.620605 525.665710,1101.492676   C518.089233,1092.413208 510.644409,1083.223877 503.147003,1074.078369   C502.118896,1072.824219 501.023071,1071.625366 499.591095,1069.978149   C495.612793,1074.561035 491.940430,1078.791382 488.257782,1083.471436  M605.607849,1070.088989   C605.916870,1069.803589 606.545227,1069.388916 606.489441,1069.251221   C602.279297,1058.850464 598.015198,1048.471436 593.366272,1037.142822   C588.580261,1048.730347 584.247253,1059.221191 579.746460,1070.118042   C588.490784,1070.118042 596.623230,1070.118042 605.607849,1070.088989  z"/>
<path fill="#F9F9F9" opacity="1.000000" stroke="none" d=" M721.056152,1030.991455   C731.345886,1048.275757 727.052551,1064.158081 708.858643,1076.436768   C711.963440,1080.924316 715.067200,1085.412598 718.173157,1089.899170   C721.252502,1094.347290 724.334045,1098.793823 727.942627,1104.003418   C720.564758,1104.003418 714.137268,1104.127441 707.723694,1103.885864   C706.605774,1103.843750 705.280457,1102.449707 704.503052,1101.358154   C700.064575,1095.125488 695.851440,1088.730713 691.340576,1082.552490   C690.429993,1081.305298 688.608032,1080.088989 687.137268,1080.000000   C682.004272,1079.689697 676.840942,1079.880005 671.312012,1079.880005   C671.312012,1087.900879 671.312012,1095.645630 671.312012,1103.699219   C664.541382,1103.699219 658.140137,1103.699219 651.371338,1103.699219   C651.371338,1075.217285 651.371338,1046.498901 651.371338,1017.120422   C658.637146,1017.120422 666.074707,1016.876221 673.489685,1017.180786   C683.265259,1017.582275 693.096375,1017.887451 702.764771,1019.231995   C710.186401,1020.264099 716.339355,1024.480225 721.056152,1030.991455  M671.117310,1051.482910   C671.117310,1055.422607 671.117310,1059.362427 671.117310,1063.075317   C678.850098,1063.075317 686.146851,1063.616943 693.326355,1062.930786   C701.324829,1062.166626 705.913452,1056.439575 705.921692,1048.849365   C705.930237,1040.960938 701.253723,1034.979370 693.233704,1034.222046   C686.055237,1033.544189 678.762268,1034.079346 671.117310,1034.079346   C671.117310,1039.593750 671.117310,1045.041138 671.117310,1051.482910  z"/>
<path fill="#F9F9F9" opacity="1.000000" stroke="none" d=" M889.894775,1104.010742   C885.446594,1104.010742 881.479248,1104.010742 877.055054,1104.010742   C877.055054,1092.150146 877.055054,1080.578735 877.055054,1068.822876   C863.845764,1068.822876 851.095825,1068.822876 837.824219,1068.822876   C837.824219,1080.474487 837.824219,1092.034302 837.824219,1103.797485   C830.865906,1103.797485 824.426453,1103.797485 817.718018,1103.797485   C817.718018,1075.006714 817.718018,1046.272339 817.718018,1017.343811   C824.399353,1017.343811 830.812561,1017.343811 837.668274,1017.343811   C837.668274,1028.637207 837.668274,1039.721191 837.668274,1051.083984   C850.860107,1051.083984 863.615356,1051.083984 876.899292,1051.083984   C876.899292,1040.035645 876.899292,1028.809082 876.899292,1017.357483   C883.856201,1017.357483 890.290588,1017.357483 896.930420,1017.357483   C896.930420,1046.164917 896.930420,1074.945312 896.930420,1104.010742   C894.681396,1104.010742 892.528503,1104.010742 889.894775,1104.010742  z"/>
<path fill="#F9F9F9" opacity="1.000000" stroke="none" d=" M806.955444,1021.195007   C806.955444,1025.470581 806.955444,1029.271362 806.955444,1033.621460   C797.546021,1033.621460 788.464783,1033.621460 779.148926,1033.621460   C779.148926,1057.281006 779.148926,1080.389160 779.148926,1103.753418   C772.490112,1103.753418 766.076721,1103.753418 759.206909,1103.753418   C759.206909,1080.687622 759.206909,1057.484497 759.206909,1033.732178   C749.740784,1033.732178 740.708191,1033.732178 731.405273,1033.732178   C731.405273,1028.100586 731.405273,1023.009705 731.405273,1017.557922   C732.337219,1017.427002 733.426636,1017.141602 734.516296,1017.140381   C757.318970,1017.114380 780.121826,1017.156860 802.924194,1017.072937   C805.661743,1017.062866 807.587830,1017.307434 806.955444,1021.195007  z"/>
<path fill="#F9F9F9" opacity="1.000000" stroke="none" d=" M917.806152,1028.062622   C917.806213,1024.259766 917.806213,1020.945435 917.806213,1017.378784   C924.521057,1017.378784 930.922302,1017.378784 937.639404,1017.378784   C937.639404,1046.124146 937.639404,1074.820068 937.639404,1103.763916   C931.183472,1103.763916 924.755005,1103.763916 917.806152,1103.763916   C917.806152,1078.711670 917.806152,1053.631348 917.806152,1028.062622  z"/>
<path fill="#000000" opacity="1.000000" stroke="none" d=" M1073.045166,1062.067383   C1076.473267,1053.774048 1079.791626,1045.850830 1083.393066,1037.251831   C1088.049805,1048.512939 1092.397095,1059.025635 1096.889404,1069.889160   C1087.742188,1069.889160 1079.028442,1069.889160 1069.849243,1069.889160   C1070.937866,1067.260986 1071.936768,1064.849243 1073.045166,1062.067383  z"/>
<path fill="#000000" opacity="1.000000" stroke="none" d=" M605.181763,1070.103516   C596.623230,1070.118042 588.490784,1070.118042 579.746460,1070.118042   C584.247253,1059.221191 588.580261,1048.730347 593.366272,1037.142822   C598.015198,1048.471436 602.279297,1058.850464 606.489441,1069.251221   C606.545227,1069.388916 605.916870,1069.803589 605.181763,1070.103516  z"/>
<path fill="#000000" opacity="1.000000" stroke="none" d=" M671.117310,1050.985718   C671.117310,1045.041138 671.117310,1039.593750 671.117310,1034.079346   C678.762268,1034.079346 686.055237,1033.544189 693.233704,1034.222046   C701.253723,1034.979370 705.930237,1040.960938 705.921692,1048.849365   C705.913452,1056.439575 701.324829,1062.166626 693.326355,1062.930786   C686.146851,1063.616943 678.850098,1063.075317 671.117310,1063.075317   C671.117310,1059.362427 671.117310,1055.422607 671.117310,1050.985718  z"/>
</svg>
